<svg width="22" height="22" viewBox="0 0 22 22" fill="none" xmlns="http://www.w3.org/2000/svg">
<path d="M11 0C4.95819 0 0 4.95819 0 11C0 16.1557 3.61777 20.8392 8.42188 22V18.3607C7.94586 18.465 7.50778 18.468 7.02321 18.3252C6.37314 18.1333 5.84492 17.7003 5.45284 17.04C5.20291 16.6183 4.75996 16.1611 4.29788 16.1947L4.18459 14.9107C5.18378 14.8251 6.04819 15.5194 6.56129 16.3815C6.78923 16.7649 7.05157 16.9896 7.38828 17.089C7.71373 17.1848 8.06319 17.1388 8.47038 16.995C8.5726 16.1797 8.94606 15.8746 9.22821 15.4449V15.4442C6.36307 15.0169 5.22121 13.4969 4.76802 12.2971C4.16747 10.7041 4.48973 8.71393 5.5517 7.45625C5.57234 7.43175 5.6096 7.36763 5.59517 7.32281C5.10825 5.85197 5.70158 4.63525 5.7234 4.50618C6.28535 4.67235 6.37666 4.339 8.1644 5.42514L8.4734 5.61078C8.60265 5.68782 8.56203 5.64384 8.69127 5.63411C9.43768 5.43135 10.2245 5.3194 10.9998 5.30933C11.781 5.3194 12.5628 5.43135 13.3401 5.64233L13.4402 5.6524C13.4314 5.65106 13.4673 5.64603 13.5276 5.61011C15.7608 4.25743 15.6806 4.69954 16.2794 4.50484C16.3011 4.63408 16.8866 5.87061 16.4048 7.32281C16.3399 7.52289 18.3409 9.35527 17.2318 12.2966C16.7786 13.4969 15.6369 15.0169 12.7718 15.4442V15.4449C13.139 16.0047 13.5803 16.3024 13.578 17.4572V22C18.3822 20.8392 21.9998 16.1557 21.9998 11C22 4.95819 17.0418 0 11 0V0Z" fill="#E9E9E9"/>
</svg>
